<?xml version="1.0" encoding="UTF-8"?>
<svg version="1.1" xmlns="http://www.w3.org/2000/svg" width="250" height="256">
<path d="M0 0 C1.40894101 -0.00571423 2.81787741 -0.01268253 4.22680664 -0.02079773 C8.02662059 -0.038631 11.82620236 -0.03757911 15.62604547 -0.03185534 C18.81152931 -0.02874827 21.99696953 -0.03487293 25.18244714 -0.04089409 C32.7054905 -0.05490629 40.22842023 -0.05340649 47.75146484 -0.04199219 C55.48139655 -0.03052226 63.21098084 -0.04457511 70.94086677 -0.07138866 C77.60535998 -0.09363071 84.26974482 -0.10016375 90.93427247 -0.09431225 C94.90235004 -0.09096073 98.87020518 -0.09323589 102.83825111 -0.11056328 C106.57395119 -0.12616618 110.30914178 -0.12193145 114.04482269 -0.10325813 C116.04730044 -0.09788567 118.04980182 -0.11198537 120.05223083 -0.12695312 C134.35306197 -0.01200452 150.34750254 4.48482223 161.0456543 14.52905273 C175.21651291 30.02338561 179.06527474 45.32886614 179.05102539 65.84887695 C179.05702398 67.26781564 179.06383254 68.68675109 179.07138062 70.10568237 C179.08890928 73.92811379 179.0937303 77.75045545 179.09501219 81.57292318 C179.09644146 83.96864961 179.10072554 86.36435376 179.10600662 88.76007462 C179.12446109 97.13929931 179.13268271 105.51846073 179.13110352 113.89770508 C179.12990229 121.6747896 179.15101268 129.45159655 179.18259084 137.22861087 C179.20884148 143.9355752 179.2194672 150.64244931 179.2181927 157.34946454 C179.21768578 161.34213443 179.22321802 165.33455702 179.2445488 169.32717514 C179.26408127 173.08502702 179.26395481 176.84239935 179.24951553 180.60026932 C179.24646765 182.61468108 179.26299665 184.62909369 179.28039551 186.64343262 C179.17769595 201.70673328 174.56402148 215.63099642 164.07299805 226.65405273 C151.02710493 238.95781421 137.2128024 243.50053426 119.56860352 243.609375 C118.06685074 243.6242244 118.06685074 243.6242244 116.53475952 243.63937378 C113.23242521 243.67088641 109.93007712 243.69573787 106.62768555 243.72045898 C104.31144881 243.74106898 101.99521549 243.76206639 99.6789856 243.78343201 C93.57479854 243.83857826 87.47057734 243.88795494 81.36633301 243.9362793 C76.43907018 243.97626101 71.51184852 244.02036551 66.58462334 244.06471348 C60.6406567 244.11810117 54.69667351 244.16950789 48.75268555 244.22045898 C47.64552059 244.2300168 46.53835564 244.23957462 45.39764023 244.24942207 C34.29355709 244.34369869 23.18971969 244.42106409 12.08520508 244.43188477 C11.23146238 244.43338815 10.37771969 244.43489153 9.498106 244.43644047 C-12.22400902 244.43307384 -28.96037644 241.48510094 -45.52075195 226.31420898 C-57.66051988 213.77756403 -60.54795449 198.80680702 -60.51416016 181.98681641 C-60.51851485 180.5468469 -60.52370051 179.1068797 -60.52964783 177.66691589 C-60.54296906 173.77831098 -60.5436241 169.88980367 -60.54108453 166.00118041 C-60.54000992 162.74358674 -60.54491076 159.48601243 -60.54968995 156.22842294 C-60.56076182 148.53621887 -60.56123593 140.84406364 -60.55517578 133.15185547 C-60.54914031 125.24305458 -60.56144146 117.33443178 -60.58274585 109.42566127 C-60.6004192 102.61174907 -60.60635412 95.79789326 -60.60310811 88.98395902 C-60.60130389 84.9248309 -60.60384443 80.86582979 -60.61782265 76.80672264 C-60.63048982 72.9857614 -60.62837392 69.16507562 -60.61541176 65.34411812 C-60.61306546 63.9510628 -60.61570982 62.55798756 -60.62403488 61.16495514 C-60.71981571 43.87559829 -56.64141461 29.26138703 -44.4543457 16.58764648 C-43.72344727 15.86706055 -42.99254883 15.14647461 -42.23950195 14.40405273 C-41.66329102 13.8175293 -41.08708008 13.23100586 -40.4934082 12.62670898 C-35.78899081 8.19304943 -30.25042081 5.65721161 -24.23950195 3.40405273 C-23.58174176 3.15428649 -22.92398157 2.90452024 -22.24628925 2.64718533 C-14.81130463 0.10324288 -7.80494715 -0.02703782 0 0 Z M-21.9855957 43.32983398 C-26.54123733 50.86580191 -26.6797034 57.08847241 -26.65942383 65.79980469 C-26.66677236 67.15405982 -26.67536086 68.5083087 -26.68508911 69.86254883 C-26.70723406 73.52596794 -26.71023927 77.18916164 -26.7083416 80.85263848 C-26.70822155 83.9189623 -26.71679998 86.98523898 -26.72511911 90.05154961 C-26.74432876 97.29107185 -26.74724628 104.5304788 -26.74047852 111.77001953 C-26.73384272 119.21883761 -26.7566887 126.66715989 -26.79379225 134.11587745 C-26.82456427 140.52804028 -26.83584109 146.94004425 -26.83195543 153.35227937 C-26.82989527 157.17449689 -26.8352524 160.99632864 -26.85984802 164.81847572 C-26.8822369 168.41632564 -26.88013838 172.0133742 -26.8599205 175.61122894 C-26.85492671 177.54634425 -26.87444226 179.48147533 -26.89492798 181.41648865 C-26.82164194 189.08715948 -25.71134506 195.03665381 -21.23950195 201.40405273 C-13.53190169 208.88579068 -4.39459983 208.70490771 5.7890625 208.71044922 C7.74159943 208.72293449 7.74159943 208.72293449 9.73358154 208.735672 C13.28951897 208.75752541 16.84537045 208.76640339 20.40136743 208.77149844 C22.62752998 208.77515264 24.85367039 208.78139814 27.07982445 208.78849983 C34.85905309 208.81296173 42.63821535 208.82603933 50.41748047 208.82958984 C57.64815836 208.83322344 64.87841139 208.86311422 72.1089595 208.90499443 C78.33427312 208.93977734 84.55944644 208.95513965 90.7848565 208.95583588 C94.49531746 208.95662592 98.20534493 208.96523799 101.91570473 208.99383354 C106.05868775 209.0250524 110.20066805 209.01591656 114.34375 209.00341797 C116.16684944 209.0256694 116.16684944 209.0256694 118.02677917 209.04837036 C126.24851504 208.97792616 133.07541482 207.50853244 139.40730762 201.96132565 C149.73086802 190.55762504 145.9072506 167.60905465 145.89331055 153.41577148 C145.89398555 150.98403412 145.89495721 148.55229683 145.89620972 146.12055969 C145.89767827 141.03967645 145.89555987 135.95881087 145.89086914 130.87792969 C145.88518156 124.40607383 145.88845011 117.93425953 145.8944416 111.4624052 C145.89807785 106.44429722 145.89689448 101.42619888 145.89431381 96.40809059 C145.89365252 94.02377123 145.89444467 91.63945097 145.89679337 89.25513268 C147.61338878 62.50972935 147.61338878 62.50972935 137.01049805 39.52905273 C129.00947742 34.29761617 121.14575922 33.96445872 111.78027344 34 C110.50755081 33.99313675 109.23482819 33.9862735 107.92353821 33.97920227 C104.456494 33.96136825 100.98970423 33.9624206 97.52262807 33.96814466 C94.61775209 33.97125065 91.712924 33.96512849 88.80805486 33.95910591 C81.95012048 33.94509442 75.09231076 33.94659379 68.234375 33.95800781 C61.18206044 33.96948666 54.1301263 33.95540984 47.07786185 33.92861134 C41.00111419 33.90639259 34.92448541 33.89983077 28.84770006 33.90568775 C25.2278983 33.90904373 21.6083403 33.90673358 17.98857307 33.88943672 C13.94884599 33.87097272 9.90985024 33.88521778 5.87011719 33.90234375 C4.0938092 33.8878418 4.0938092 33.8878418 2.28161621 33.87304688 C-7.37051696 33.95845237 -15.67601789 35.55116044 -21.9855957 43.32983398 Z " fill="#FCFCFC" transform="translate(65.239501953125,5.595947265625)"/>
<path d="M0 0 C10.40222671 8.09551825 17.14298081 16.69052132 18.8515625 30.12109375 C19.38908063 43.94096772 13.61267952 55.98848246 4.65234375 66.37109375 C1.03813131 70.06763449 -2.91554032 73.38339712 -6.84765625 76.734375 C-8.82321208 78.45496135 -8.82321208 78.45496135 -10.75 81.25 C-13.20475066 84.03205074 -15.03625628 83.91789714 -18.625 84.375 C-18.95113281 83.36179687 -19.27726562 82.34859375 -19.61328125 81.3046875 C-20.05444236 79.95304496 -20.49586242 78.60148693 -20.9375 77.25 C-21.15083984 76.58484375 -21.36417969 75.9196875 -21.58398438 75.234375 C-22.63365367 72.038367 -23.72241491 69.18929571 -25.29296875 66.1953125 C-26.72853489 63.15578536 -26.99282565 61.67910542 -26.625 58.375 C-25.27978516 56.49389648 -25.27978516 56.49389648 -23.4140625 54.74609375 C-22.74632812 54.10349609 -22.07859375 53.46089844 -21.390625 52.79882812 C-20.68421875 52.14333984 -19.9778125 51.48785156 -19.25 50.8125 C-17.86278472 49.50334757 -16.47979922 48.18969523 -15.1015625 46.87109375 C-14.48361816 46.29544678 -13.86567383 45.7197998 -13.22900391 45.12670898 C-9.43020289 40.97809448 -9.23934328 37.20526272 -9.3828125 31.77734375 C-9.71287388 28.50334781 -10.39907202 26.81634037 -12.625 24.375 C-16.7616017 21.29282619 -18.19248703 20.35731465 -23.421875 20.421875 C-28.32069018 21.17432034 -31.15352717 23.69022492 -34.6875 27 C-35.29311768 27.54543457 -35.89873535 28.09086914 -36.52270508 28.65283203 C-38.24008933 30.20997025 -39.93438064 31.78892237 -41.625 33.375 C-42.40101563 34.08140625 -43.17703125 34.7878125 -43.9765625 35.515625 C-47.47095132 38.81670721 -49.75342675 41.86120568 -51.625 46.375 C-50.655625 46.395625 -49.68625 46.41625 -48.6875 46.4375 C-41.4531588 47.50438264 -36.1573242 53.44487905 -31.75 58.875 C-25.65524769 67.19885154 -23.73415096 76.1218318 -24.625 86.375 C-26.7876354 98.79527305 -35.27115174 107.53522189 -43.9375 116.125 C-44.72833984 116.93582031 -45.51917969 117.74664062 -46.33398438 118.58203125 C-55.59021244 127.83074004 -64.9678106 133.77735077 -78.25 133.8125 C-89.20567297 133.7958247 -98.04679335 130.60518192 -106.5234375 123.515625 C-115.03337727 114.84750791 -119.54762266 105.10081757 -120.125 93.0625 C-119.7177333 77.36421989 -110.55463825 66.94308681 -99.9375 56.5 C-99.17888672 55.74203125 -98.42027344 54.9840625 -97.63867188 54.203125 C-89.74786616 46.375 -89.74786616 46.375 -84.625 46.375 C-84.13580078 47.92960937 -84.13580078 47.92960937 -83.63671875 49.515625 C-83.19571653 50.8855468 -82.75428777 52.25533133 -82.3125 53.625 C-81.99249023 54.64787109 -81.99249023 54.64787109 -81.66601562 55.69140625 C-80.70235913 58.6542904 -79.84872478 61.09420773 -77.89453125 63.546875 C-76.625 65.375 -76.625 65.375 -76.66796875 67.84765625 C-77.86571411 71.01068175 -79.45311303 72.53141802 -81.9375 74.8125 C-86.63066754 79.29675071 -91.16520602 83.65326951 -91.828125 90.4609375 C-91.92632622 95.25643024 -91.8754113 98.56417295 -88.625 102.375 C-84.95059718 105.60402066 -81.08307999 106.17944009 -76.3203125 106.05859375 C-70.87940312 104.67865297 -67.37385075 100.33845401 -63.625 96.375 C-62.7175 95.50875 -61.81 94.6425 -60.875 93.75 C-59.76125 92.574375 -59.76125 92.574375 -58.625 91.375 C-58.0990625 90.82070312 -57.573125 90.26640625 -57.03125 89.6953125 C-54.02543964 86.39175677 -51.9069736 84.02756439 -51.625 79.375 C-52.94177734 79.23771484 -52.94177734 79.23771484 -54.28515625 79.09765625 C-62.34120503 77.35453458 -68.92324399 70.51852689 -74.28515625 64.52734375 C-79.05939082 56.85794653 -78.91315271 45.45692102 -77.078125 36.79296875 C-73.61838152 27.99673415 -66.06063786 18.97359792 -58.625 13.375 C-56.23533877 11.05171825 -53.9117606 8.68798523 -51.66015625 6.23046875 C-37.79873092 -8.45923156 -17.02451362 -11.70726827 0 0 Z " fill="#F9F9F8" transform="translate(175.625,64.625)"/>
<path d="M0 0 C2.06394222 3.40841717 2.25117623 6.04456232 2.25396729 9.99682617 C2.25960693 11.22501068 2.26524658 12.45319519 2.27105713 13.71859741 C2.26716866 15.07672178 2.26307233 16.43484557 2.25878906 17.79296875 C2.26149958 19.22547585 2.26506086 20.65798155 2.26940918 22.09048462 C2.27852822 25.97885682 2.27499094 29.86712292 2.26865101 33.75549698 C2.26358851 37.82422421 2.26828316 41.89294234 2.27142334 45.96166992 C2.27506225 52.79445019 2.27026585 59.62718723 2.26074219 66.45996094 C2.24985777 74.36026187 2.2533834 82.26045958 2.264395 90.16075802 C2.27347 96.94301964 2.27475211 103.72525018 2.26951766 110.50751591 C2.26639913 114.55860651 2.26598541 118.60964859 2.27259064 122.66073608 C2.27836656 126.46925058 2.27436271 130.27763194 2.26280212 134.08613205 C2.26015686 135.48415277 2.26091837 136.88218469 2.26532745 138.28020096 C2.27078929 140.18785452 2.2627269 142.09553256 2.25396729 144.00317383 C2.25321323 145.07094559 2.25245918 146.13871735 2.25168228 147.23884583 C2.00004224 149.99953662 1.42347132 151.6492636 0 154 C-1.08271528 150.75185417 -1.12691464 148.39846435 -1.12939453 144.98071289 C-1.13250641 143.72200378 -1.13561829 142.46329468 -1.13882446 141.16644287 C-1.13701455 139.76851373 -1.13500377 138.37058484 -1.1328125 136.97265625 C-1.13382999 135.50189184 -1.13517051 134.03112762 -1.1368103 132.56036377 C-1.13953412 128.56174414 -1.13499858 124.56316277 -1.12857056 120.56454849 C-1.12500803 118.06812677 -1.12338206 115.57171081 -1.12231445 113.07528687 C-1.1023718 75.37936949 -0.60106564 37.69053628 0 0 Z " fill="#F0F1ED" transform="translate(242,53)"/>
<path d="M0 0 C0.33 0 0.66 0 1 0 C1.7503854 4.71362932 2.14313111 9.26591509 2.20532227 14.03686523 C2.21522186 14.70113022 2.22512146 15.3653952 2.23532104 16.04978943 C2.26660744 18.21935611 2.29156164 20.38894459 2.31640625 22.55859375 C2.33700426 24.07317129 2.35800143 25.58774345 2.37937927 27.10231018 C2.43430616 31.0691184 2.48384373 35.03597594 2.53222656 39.00286865 C2.58265754 43.05859718 2.63823034 47.11425497 2.69335938 51.16992188 C2.80058099 59.11322126 2.90210431 67.05658022 3 75 C2.34 75 1.68 75 1 75 C-1.0497827 67.40102851 -1.27660023 60.30716885 -1.23046875 52.4609375 C-1.23001053 51.18070709 -1.22955231 49.90047668 -1.2290802 48.58145142 C-1.22752608 45.88692697 -1.21931825 43.19253741 -1.20581055 40.49804688 C-1.18878813 37.06084278 -1.18499792 33.62378575 -1.18575573 30.18654442 C-1.18541711 26.88215609 -1.17657248 23.57781505 -1.16796875 20.2734375 C-1.16685593 19.04724701 -1.1657431 17.82105652 -1.16459656 16.55770874 C-1.13346513 10.93808072 -1.01428613 5.53329758 0 0 Z " fill="#F5F6F8" transform="translate(37,125)"/>
<path d="M0 0 C0.99 0.33 1.98 0.66 3 1 C3.04954711 5.05676492 3.085789 9.11341194 3.10986328 13.17041016 C3.11990253 14.54967315 3.13353677 15.92891496 3.15087891 17.30810547 C3.17521754 19.2938514 3.18543255 21.2797545 3.1953125 23.265625 C3.20578613 24.45961914 3.21625977 25.65361328 3.22705078 26.88378906 C3.01034762 29.85798164 2.56186122 31.50318379 1 34 C-0.17942085 30.46173745 -0.11289189 27.65851274 -0.09765625 23.92578125 C-0.0962413 23.2419487 -0.09482635 22.55811615 -0.09336853 21.8535614 C-0.08777876 19.67316278 -0.07522822 17.49286749 -0.0625 15.3125 C-0.05748367 13.83268378 -0.052921 12.35286594 -0.04882812 10.87304688 C-0.03781271 7.24866443 -0.02055512 3.6243423 0 0 Z " fill="#DEDEDE" transform="translate(241,173)"/>
<path d="M0 0 C2.31058985 3.64829977 2.34281599 7.20068395 2.4140625 11.390625 C2.43342865 12.09523865 2.4527948 12.79985229 2.4727478 13.52581787 C2.53232735 15.76709039 2.57884123 18.00841489 2.625 20.25 C2.66319979 21.77345938 2.70225269 23.29689762 2.7421875 24.8203125 C2.83801018 28.54668106 2.92212107 32.27320835 3 36 C2.34 36 1.68 36 1 36 C-0.53297297 32.93405406 -0.12131455 29.72888147 -0.09765625 26.3671875 C-0.0962413 25.61535187 -0.09482635 24.86351624 -0.09336853 24.08889771 C-0.08776465 21.6842249 -0.07521157 19.27964473 -0.0625 16.875 C-0.0574855 15.24609509 -0.0529225 13.61718873 -0.04882812 11.98828125 C-0.03779397 7.99215173 -0.02052679 3.99609158 0 0 Z " fill="#CBCCCA" transform="translate(37,164)"/>
<path d="M0 0 C0.99 0.33 1.98 0.66 3 1 C2.79141357 1.51739746 2.58282715 2.03479492 2.36791992 2.56787109 C-0.66413171 11.13370857 -0.55759308 19.65114201 -0.6875 28.625 C-0.72073736 30.21747488 -0.75523275 31.80992403 -0.79101562 33.40234375 C-0.87517855 37.26808537 -0.94232846 41.13377615 -1 45 C-1.33 45 -1.66 45 -2 45 C-2.04951793 39.39495119 -2.08577555 33.79003035 -2.10986328 28.18481445 C-2.11990737 26.2788674 -2.13354516 24.37293571 -2.15087891 22.46704102 C-2.17519718 19.72408248 -2.18649912 16.98132809 -2.1953125 14.23828125 C-2.20563507 13.38913651 -2.21595764 12.53999176 -2.22659302 11.66511536 C-2.22741351 7.31744045 -2.03452583 3.9599335 0 0 Z " fill="#F4F6EE" transform="translate(39,51)"/>
<path d="M0 0 C0.33 0 0.66 0 1 0 C2.15316726 6.34241995 2.09507063 12.56688704 2 19 C1.34 19 0.68 19 0 19 C0 23.29 0 27.58 0 32 C-0.33 32 -0.66 32 -1 32 C-1.02921779 27.97918212 -1.04687188 23.95839186 -1.0625 19.9375 C-1.07087891 18.80376953 -1.07925781 17.67003906 -1.08789062 16.50195312 C-1.10424847 10.89121133 -1.01812097 5.52350669 0 0 Z " fill="#DCDFDE" transform="translate(37,125)"/>
<path d="M0 0 C0.66 0.33 1.32 0.66 2 1 C-1.79037089 6.47035213 -5.75027653 10.89962427 -11 15 C-11 12 -11 12 -9.5390625 10.17578125 C-8.59160156 9.25345703 -8.59160156 9.25345703 -7.625 8.3125 C-6.99851563 7.68988281 -6.37203125 7.06726563 -5.7265625 6.42578125 C-4 5 -4 5 -2 5 C-2 3.68 -2 2.36 -2 1 C-1.34 0.67 -0.68 0.34 0 0 Z " fill="#D2D2D1" transform="translate(144,163)"/>
<path d="M0 0 C0.33 0 0.66 0 1 0 C1.3690205 13.6332574 1.3690205 13.6332574 -1 20 C-1.99 19.67 -2.98 19.34 -4 19 C-3.525625 17.906875 -3.05125 16.81375 -2.5625 15.6875 C-0.61291255 10.56523487 -0.28970046 5.43438112 0 0 Z " fill="#D7D8DA" transform="translate(212,181)"/>
<path d="M0 0 C0.99 0.33 1.98 0.66 3 1 C1.92807816 2.3218362 0.84197305 3.63217927 -0.25 4.9375 C-0.85328125 5.66839844 -1.4565625 6.39929688 -2.078125 7.15234375 C-4.10741134 9.10326334 -5.254407 9.61731779 -8 10 C-7.34 8.68 -6.68 7.36 -6 6 C-5.34 6 -4.68 6 -4 6 C-4 5.34 -4 4.68 -4 4 C-2.70766393 2.62689293 -1.37562854 1.28965176 0 0 Z " fill="#E7E8EE" transform="translate(180,126)"/>
<path d="M0 0 C0.99 0.33 1.98 0.66 3 1 C2.55123384 2.64846769 2.09069512 4.29373455 1.625 5.9375 C1.36976562 6.85402344 1.11453125 7.77054688 0.8515625 8.71484375 C0 11 0 11 -2 12 C-2.17835515 7.45194365 -1.99785435 4.1205746 0 0 Z " fill="#CACACB" transform="translate(39,51)"/>
<path d="M0 0 C3.66881155 0.70554068 6.70450534 2.27735506 10 4 C9.67 4.99 9.34 5.98 9 7 C7.68381002 6.21448343 6.37214772 5.4213763 5.0625 4.625 C4.33160156 4.18414062 3.60070313 3.74328125 2.84765625 3.2890625 C1 2 1 2 0 0 Z " fill="#D6D6D7" transform="translate(29,238)"/>
<path d="M0 0 C0.99 0 1.98 0 3 0 C2.67 2.97 2.34 5.94 2 9 C1.34 9 0.68 9 0 9 C-1.125 3.375 -1.125 3.375 0 0 Z " fill="#BDBDBE" transform="translate(81,150)"/>
<path d="M0 0 C0.33 0.99 0.66 1.98 1 3 C-1.97 5.475 -1.97 5.475 -5 8 C-5.33 7.34 -5.66 6.68 -6 6 C-4 4 -2 2 0 0 Z " fill="#E9E9EA" transform="translate(143,86)"/>
<path d="M0 0 C0.66 0.33 1.32 0.66 2 1 C-1.81234923 4.3502463 -5.33285711 6.16974789 -10 8 C-10 7.34 -10 6.68 -10 6 C-7.8828125 4.45703125 -7.8828125 4.45703125 -5.125 2.8125 C-4.22007813 2.26207031 -3.31515625 1.71164063 -2.3828125 1.14453125 C-1.20332031 0.57798828 -1.20332031 0.57798828 0 0 Z " fill="#BCBCBF" transform="translate(119,189)"/>
<path d="M0 0 C0.33 1.32 0.66 2.64 1 4 C1.66 4.33 2.32 4.66 3 5 C2.01 6.485 2.01 6.485 1 8 C0.01 8 -0.98 8 -2 8 C-1.34 5.36 -0.68 2.72 0 0 Z " fill="#DDDDDD" transform="translate(123,107)"/>
<path d="M0 0 C1.32 0.33 2.64 0.66 4 1 C4.12375 1.969375 4.2475 2.93875 4.375 3.9375 C4.58125 4.948125 4.7875 5.95875 5 7 C5.66 7.33 6.32 7.66 7 8 C6.01 8 5.02 8 4 8 C2.68 5.36 1.36 2.72 0 0 Z " fill="#E7E8E7" transform="translate(204,47)"/>
<path d="M0 0 C-0.33 0.99 -0.66 1.98 -1 3 C-3.31 3.33 -5.62 3.66 -8 4 C-8 3.34 -8 2.68 -8 2 C-2.25 0 -2.25 0 0 0 Z " fill="#EEEDED" transform="translate(211,242)"/>
</svg>
