<?xml version="1.0" encoding="UTF-8"?>
<svg version="1.1" xmlns="http://www.w3.org/2000/svg" width="901" height="256">
<path d="M0 0 C1.40894101 -0.00571423 2.81787741 -0.01268253 4.22680664 -0.02079773 C8.02662059 -0.038631 11.82620236 -0.03757911 15.62604547 -0.03185534 C18.81152931 -0.02874827 21.99696953 -0.03487293 25.18244714 -0.04089409 C32.7054905 -0.05490629 40.22842023 -0.05340649 47.75146484 -0.04199219 C55.48139655 -0.03052226 63.21098084 -0.04457511 70.94086677 -0.07138866 C77.60535998 -0.09363071 84.26974482 -0.10016375 90.93427247 -0.09431225 C94.90235004 -0.09096073 98.87020518 -0.09323589 102.83825111 -0.11056328 C106.57395119 -0.12616618 110.30914178 -0.12193145 114.04482269 -0.10325813 C116.04730044 -0.09788567 118.04980182 -0.11198537 120.05223083 -0.12695312 C134.35306197 -0.01200452 150.34750254 4.48482223 161.0456543 14.52905273 C175.21651291 30.02338561 179.06527474 45.32886614 179.05102539 65.84887695 C179.05702398 67.26781564 179.06383254 68.68675109 179.07138062 70.10568237 C179.08890928 73.92811379 179.0937303 77.75045545 179.09501219 81.57292318 C179.09644146 83.96864961 179.10072554 86.36435376 179.10600662 88.76007462 C179.12446109 97.13929931 179.13268271 105.51846073 179.13110352 113.89770508 C179.12990229 121.6747896 179.15101268 129.45159655 179.18259084 137.22861087 C179.20884148 143.9355752 179.2194672 150.64244931 179.2181927 157.34946454 C179.21768578 161.34213443 179.22321802 165.33455702 179.2445488 169.32717514 C179.26408127 173.08502702 179.26395481 176.84239935 179.24951553 180.60026932 C179.24646765 182.61468108 179.26299665 184.62909369 179.28039551 186.64343262 C179.17769595 201.70673328 174.56402148 215.63099642 164.07299805 226.65405273 C151.02710493 238.95781421 137.2128024 243.50053426 119.56860352 243.609375 C118.06685074 243.6242244 118.06685074 243.6242244 116.53475952 243.63937378 C113.23242521 243.67088641 109.93007712 243.69573787 106.62768555 243.72045898 C104.31144881 243.74106898 101.99521549 243.76206639 99.6789856 243.78343201 C93.57479854 243.83857826 87.47057734 243.88795494 81.36633301 243.9362793 C76.43907018 243.97626101 71.51184852 244.02036551 66.58462334 244.06471348 C60.6406567 244.11810117 54.69667351 244.16950789 48.75268555 244.22045898 C47.64552059 244.2300168 46.53835564 244.23957462 45.39764023 244.24942207 C34.29355709 244.34369869 23.18971969 244.42106409 12.08520508 244.43188477 C11.23146238 244.43338815 10.37771969 244.43489153 9.498106 244.43644047 C-12.22400902 244.43307384 -28.96037644 241.48510094 -45.52075195 226.31420898 C-57.66051988 213.77756403 -60.54795449 198.80680702 -60.51416016 181.98681641 C-60.51851485 180.5468469 -60.52370051 179.1068797 -60.52964783 177.66691589 C-60.54296906 173.77831098 -60.5436241 169.88980367 -60.54108453 166.00118041 C-60.54000992 162.74358674 -60.54491076 159.48601243 -60.54968995 156.22842294 C-60.56076182 148.53621887 -60.56123593 140.84406364 -60.55517578 133.15185547 C-60.54914031 125.24305458 -60.56144146 117.33443178 -60.58274585 109.42566127 C-60.6004192 102.61174907 -60.60635412 95.79789326 -60.60310811 88.98395902 C-60.60130389 84.9248309 -60.60384443 80.86582979 -60.61782265 76.80672264 C-60.63048982 72.9857614 -60.62837392 69.16507562 -60.61541176 65.34411812 C-60.61306546 63.9510628 -60.61570982 62.55798756 -60.62403488 61.16495514 C-60.71981571 43.87559829 -56.64141461 29.26138703 -44.4543457 16.58764648 C-43.72344727 15.86706055 -42.99254883 15.14647461 -42.23950195 14.40405273 C-41.66329102 13.8175293 -41.08708008 13.23100586 -40.4934082 12.62670898 C-35.78899081 8.19304943 -30.25042081 5.65721161 -24.23950195 3.40405273 C-23.58174176 3.15428649 -22.92398157 2.90452024 -22.24628925 2.64718533 C-14.81130463 0.10324288 -7.80494715 -0.02703782 0 0 Z M-21.9855957 43.32983398 C-26.54123733 50.86580191 -26.6797034 57.08847241 -26.65942383 65.79980469 C-26.66677236 67.15405982 -26.67536086 68.5083087 -26.68508911 69.86254883 C-26.70723406 73.52596794 -26.71023927 77.18916164 -26.7083416 80.85263848 C-26.70822155 83.9189623 -26.71679998 86.98523898 -26.72511911 90.05154961 C-26.74432876 97.29107185 -26.74724628 104.5304788 -26.74047852 111.77001953 C-26.73384272 119.21883761 -26.7566887 126.66715989 -26.79379225 134.11587745 C-26.82456427 140.52804028 -26.83584109 146.94004425 -26.83195543 153.35227937 C-26.82989527 157.17449689 -26.8352524 160.99632864 -26.85984802 164.81847572 C-26.8822369 168.41632564 -26.88013838 172.0133742 -26.8599205 175.61122894 C-26.85492671 177.54634425 -26.87444226 179.48147533 -26.89492798 181.41648865 C-26.82164194 189.08715948 -25.71134506 195.03665381 -21.23950195 201.40405273 C-13.53190169 208.88579068 -4.39459983 208.70490771 5.7890625 208.71044922 C7.74159943 208.72293449 7.74159943 208.72293449 9.73358154 208.735672 C13.28951897 208.75752541 16.84537045 208.76640339 20.40136743 208.77149844 C22.62752998 208.77515264 24.85367039 208.78139814 27.07982445 208.78849983 C34.85905309 208.81296173 42.63821535 208.82603933 50.41748047 208.82958984 C57.64815836 208.83322344 64.87841139 208.86311422 72.1089595 208.90499443 C78.33427312 208.93977734 84.55944644 208.95513965 90.7848565 208.95583588 C94.49531746 208.95662592 98.20534493 208.96523799 101.91570473 208.99383354 C106.05868775 209.0250524 110.20066805 209.01591656 114.34375 209.00341797 C116.16684944 209.0256694 116.16684944 209.0256694 118.02677917 209.04837036 C126.24851504 208.97792616 133.07541482 207.50853244 139.40730762 201.96132565 C149.73086802 190.55762504 145.9072506 167.60905465 145.89331055 153.41577148 C145.89398555 150.98403412 145.89495721 148.55229683 145.89620972 146.12055969 C145.89767827 141.03967645 145.89555987 135.95881087 145.89086914 130.87792969 C145.88518156 124.40607383 145.88845011 117.93425953 145.8944416 111.4624052 C145.89807785 106.44429722 145.89689448 101.42619888 145.89431381 96.40809059 C145.89365252 94.02377123 145.89444467 91.63945097 145.89679337 89.25513268 C147.61338878 62.50972935 147.61338878 62.50972935 137.01049805 39.52905273 C129.00947742 34.29761617 121.14575922 33.96445872 111.78027344 34 C110.50755081 33.99313675 109.23482819 33.9862735 107.92353821 33.97920227 C104.456494 33.96136825 100.98970423 33.9624206 97.52262807 33.96814466 C94.61775209 33.97125065 91.712924 33.96512849 88.80805486 33.95910591 C81.95012048 33.94509442 75.09231076 33.94659379 68.234375 33.95800781 C61.18206044 33.96948666 54.1301263 33.95540984 47.07786185 33.92861134 C41.00111419 33.90639259 34.92448541 33.89983077 28.84770006 33.90568775 C25.2278983 33.90904373 21.6083403 33.90673358 17.98857307 33.88943672 C13.94884599 33.87097272 9.90985024 33.88521778 5.87011719 33.90234375 C4.0938092 33.8878418 4.0938092 33.8878418 2.28161621 33.87304688 C-7.37051696 33.95845237 -15.67601789 35.55116044 -21.9855957 43.32983398 Z " fill="#FCFCFC" transform="translate(65.239501953125,5.595947265625)"/>
<path d="M0 0 C10.40222671 8.09551825 17.14298081 16.69052132 18.8515625 30.12109375 C19.38908063 43.94096772 13.61267952 55.98848246 4.65234375 66.37109375 C1.03813131 70.06763449 -2.91554032 73.38339712 -6.84765625 76.734375 C-8.82321208 78.45496135 -8.82321208 78.45496135 -10.75 81.25 C-13.20475066 84.03205074 -15.03625628 83.91789714 -18.625 84.375 C-18.95113281 83.36179687 -19.27726562 82.34859375 -19.61328125 81.3046875 C-20.05444236 79.95304496 -20.49586242 78.60148693 -20.9375 77.25 C-21.15083984 76.58484375 -21.36417969 75.9196875 -21.58398438 75.234375 C-22.63365367 72.038367 -23.72241491 69.18929571 -25.29296875 66.1953125 C-26.72853489 63.15578536 -26.99282565 61.67910542 -26.625 58.375 C-25.27978516 56.49389648 -25.27978516 56.49389648 -23.4140625 54.74609375 C-22.74632812 54.10349609 -22.07859375 53.46089844 -21.390625 52.79882812 C-20.68421875 52.14333984 -19.9778125 51.48785156 -19.25 50.8125 C-17.86278472 49.50334757 -16.47979922 48.18969523 -15.1015625 46.87109375 C-14.48361816 46.29544678 -13.86567383 45.7197998 -13.22900391 45.12670898 C-9.43020289 40.97809448 -9.23934328 37.20526272 -9.3828125 31.77734375 C-9.71287388 28.50334781 -10.39907202 26.81634037 -12.625 24.375 C-16.7616017 21.29282619 -18.19248703 20.35731465 -23.421875 20.421875 C-28.32069018 21.17432034 -31.15352717 23.69022492 -34.6875 27 C-35.29311768 27.54543457 -35.89873535 28.09086914 -36.52270508 28.65283203 C-38.24008933 30.20997025 -39.93438064 31.78892237 -41.625 33.375 C-42.40101563 34.08140625 -43.17703125 34.7878125 -43.9765625 35.515625 C-47.47095132 38.81670721 -49.75342675 41.86120568 -51.625 46.375 C-50.655625 46.395625 -49.68625 46.41625 -48.6875 46.4375 C-41.4531588 47.50438264 -36.1573242 53.44487905 -31.75 58.875 C-25.65524769 67.19885154 -23.73415096 76.1218318 -24.625 86.375 C-26.7876354 98.79527305 -35.27115174 107.53522189 -43.9375 116.125 C-44.72833984 116.93582031 -45.51917969 117.74664062 -46.33398438 118.58203125 C-55.59021244 127.83074004 -64.9678106 133.77735077 -78.25 133.8125 C-89.20567297 133.7958247 -98.04679335 130.60518192 -106.5234375 123.515625 C-115.03337727 114.84750791 -119.54762266 105.10081757 -120.125 93.0625 C-119.7177333 77.36421989 -110.55463825 66.94308681 -99.9375 56.5 C-99.17888672 55.74203125 -98.42027344 54.9840625 -97.63867188 54.203125 C-89.74786616 46.375 -89.74786616 46.375 -84.625 46.375 C-84.13580078 47.92960937 -84.13580078 47.92960937 -83.63671875 49.515625 C-83.19571653 50.8855468 -82.75428777 52.25533133 -82.3125 53.625 C-81.99249023 54.64787109 -81.99249023 54.64787109 -81.66601562 55.69140625 C-80.70235913 58.6542904 -79.84872478 61.09420773 -77.89453125 63.546875 C-76.625 65.375 -76.625 65.375 -76.66796875 67.84765625 C-77.86571411 71.01068175 -79.45311303 72.53141802 -81.9375 74.8125 C-86.63066754 79.29675071 -91.16520602 83.65326951 -91.828125 90.4609375 C-91.92632622 95.25643024 -91.8754113 98.56417295 -88.625 102.375 C-84.95059718 105.60402066 -81.08307999 106.17944009 -76.3203125 106.05859375 C-70.87940312 104.67865297 -67.37385075 100.33845401 -63.625 96.375 C-62.7175 95.50875 -61.81 94.6425 -60.875 93.75 C-59.76125 92.574375 -59.76125 92.574375 -58.625 91.375 C-58.0990625 90.82070312 -57.573125 90.26640625 -57.03125 89.6953125 C-54.02543964 86.39175677 -51.9069736 84.02756439 -51.625 79.375 C-52.94177734 79.23771484 -52.94177734 79.23771484 -54.28515625 79.09765625 C-62.34120503 77.35453458 -68.92324399 70.51852689 -74.28515625 64.52734375 C-79.05939082 56.85794653 -78.91315271 45.45692102 -77.078125 36.79296875 C-73.61838152 27.99673415 -66.06063786 18.97359792 -58.625 13.375 C-56.23533877 11.05171825 -53.9117606 8.68798523 -51.66015625 6.23046875 C-37.79873092 -8.45923156 -17.02451362 -11.70726827 0 0 Z " fill="#F9F9F8" transform="translate(175.625,64.625)"/>
<path d="M0 0 C1.02996094 -0.00128906 2.05992187 -0.00257812 3.12109375 -0.00390625 C4.74724609 0.00189453 4.74724609 0.00189453 6.40625 0.0078125 C7.49035156 0.00394531 8.57445312 0.00007813 9.69140625 -0.00390625 C10.72136719 -0.00261719 11.75132812 -0.00132813 12.8125 0 C14.24045898 0.00169189 14.24045898 0.00169189 15.69726562 0.00341797 C17.90625 0.1328125 17.90625 0.1328125 18.90625 1.1328125 C19.02947758 2.91184607 19.08414019 4.69567453 19.11157227 6.47875977 C19.13151749 7.6198671 19.15146271 8.76097443 19.17201233 9.93666077 C19.18872482 11.1783049 19.20543732 12.41994904 19.22265625 13.69921875 C19.24343735 14.96297836 19.26421844 16.22673798 19.28562927 17.52879333 C19.34008714 20.89399883 19.3902928 24.25921423 19.43847656 27.62451172 C19.48864759 31.05637151 19.54435655 34.48814081 19.59960938 37.91992188 C19.70695191 44.65748011 19.80869325 51.39510586 19.90625 58.1328125 C27.6468769 50.42294734 35.08580773 42.51162938 41.6640625 33.77734375 C42.90625 32.1328125 42.90625 32.1328125 43.90625 31.1328125 C45.83292507 31.04533043 47.76276861 31.02583916 49.69140625 31.03515625 C50.86123047 31.03837891 52.03105469 31.04160156 53.23632812 31.04492188 C54.46802734 31.05330078 55.69972656 31.06167969 56.96875 31.0703125 C58.82209961 31.07708008 58.82209961 31.07708008 60.71289062 31.08398438 C63.77739117 31.09581642 66.84179721 31.11230077 69.90625 31.1328125 C70.53515625 33.44213867 70.53515625 33.44213867 70.90625 36.1328125 C69.31535767 38.48600741 67.81379203 40.38215199 65.90625 42.4453125 C65.14393066 43.30624512 65.14393066 43.30624512 64.36621094 44.18457031 C62.89214298 45.84582151 61.40098524 47.49017164 59.90625 49.1328125 C57.55521836 51.78445315 55.22024783 54.44879593 52.90625 57.1328125 C52.25269531 57.88304687 51.59914063 58.63328125 50.92578125 59.40625 C48.28017122 62.58520656 46.1828969 65.11134701 45.09375 69.1328125 C46.36426582 73.82394783 49.09258078 77.21716944 51.90625 81.1328125 C53.5286377 83.516556 55.12355513 85.91831361 56.71875 88.3203125 C57.14269043 88.95541748 57.56663086 89.59052246 58.00341797 90.24487305 C61.76573258 95.88976097 65.44096954 101.58850434 69.09375 107.3046875 C70.34636199 109.25919414 71.61854088 111.20124882 72.90625 113.1328125 C72.53125 115.3203125 72.53125 115.3203125 71.90625 117.1328125 C50.63880814 119.87699855 50.63880814 119.87699855 44.96875 116.2578125 C44.288125 115.2265625 43.6075 114.1953125 42.90625 113.1328125 C42.37 112.40449219 41.83375 111.67617187 41.28125 110.92578125 C38.19023577 106.69562168 35.41095628 102.34962665 32.78125 97.8203125 C30.52839131 93.97470693 28.24211543 91.07622317 24.90625 88.1328125 C21.74458097 90.40840868 20.16440414 91.78855967 19.41601562 95.68554688 C19.22563376 98.75826926 19.1600274 101.80422985 19.15625 104.8828125 C19.12325459 106.98182813 19.08698121 109.0807957 19.046875 111.1796875 C19.03962402 112.56945801 19.03962402 112.56945801 19.03222656 113.98730469 C18.90625 116.1328125 18.90625 116.1328125 17.90625 117.1328125 C16.21066274 117.23213403 14.51099253 117.26361257 12.8125 117.265625 C11.78253906 117.26691406 10.75257813 117.26820313 9.69140625 117.26953125 C8.06525391 117.26373047 8.06525391 117.26373047 6.40625 117.2578125 C5.32214844 117.26167969 4.23804688 117.26554687 3.12109375 117.26953125 C2.09113281 117.26824219 1.06117188 117.26695312 0 117.265625 C-0.95197266 117.26449707 -1.90394531 117.26336914 -2.88476562 117.26220703 C-5.09375 117.1328125 -5.09375 117.1328125 -6.09375 116.1328125 C-6.19163264 114.64229982 -6.22006782 113.14716545 -6.22073364 111.65344238 C-6.22355347 110.68588516 -6.22637329 109.71832794 -6.22927856 108.72145081 C-6.22725433 107.6512822 -6.2252301 106.58111359 -6.22314453 105.47851562 C-6.22489685 104.35831528 -6.22664917 103.23811493 -6.22845459 102.08396912 C-6.23287577 98.36065141 -6.22993417 94.63738074 -6.2265625 90.9140625 C-6.22723546 88.33955883 -6.22820542 85.76505521 -6.22946167 83.19055176 C-6.230939 77.78669575 -6.22887754 72.3828576 -6.22412109 66.97900391 C-6.2186785 60.72319778 -6.22044117 54.46742424 -6.2259475 48.2116189 C-6.23102434 42.204302 -6.23049708 36.1970011 -6.22756577 30.18968201 C-6.22689623 27.62829077 -6.22772584 25.0668987 -6.23004532 22.50550842 C-6.23257027 18.93268597 -6.22873346 15.35992707 -6.22314453 11.78710938 C-6.22516876 10.71694077 -6.22719299 9.64677216 -6.22927856 8.54417419 C-6.22645874 7.57661697 -6.22363892 6.60905975 -6.22073364 5.61218262 C-6.22035662 4.76635368 -6.21997959 3.92052475 -6.21959114 3.04906464 C-5.9611521 -0.88632859 -3.34414308 0.00396225 0 0 Z " fill="#FBFBFA" transform="translate(817.09375,65.8671875)"/>
<path d="M0 0 C3.95831809 -0.02892857 7.91660917 -0.04677427 11.875 -0.0625 C13.56689453 -0.07506836 13.56689453 -0.07506836 15.29296875 -0.08789062 C16.36933594 -0.09111328 17.44570313 -0.09433594 18.5546875 -0.09765625 C19.54968262 -0.10289307 20.54467773 -0.10812988 21.56982422 -0.11352539 C24 0 24 0 26 1 C26.90073147 3.42804222 27.68688343 5.81909936 28.42578125 8.296875 C28.65524948 9.04148987 28.88471771 9.78610474 29.12113953 10.55328369 C29.85887913 12.95002752 30.58644006 15.34969446 31.3125 17.75 C32.26118875 20.87157499 33.21534838 23.99139315 34.17578125 27.109375 C34.4091922 27.86907593 34.64260315 28.62877686 34.88308716 29.41149902 C36.6961077 35.22703442 38.79533551 40.86642473 41.10620117 46.50488281 C42 49 42 49 42 52 C42.66 52 43.32 52 44 52 C44.17160645 51.34225586 44.34321289 50.68451172 44.52001953 50.00683594 C46.38632475 42.99367841 48.54456104 36.12142111 50.875 29.25 C51.58497497 27.14855219 52.29461055 25.04698968 53.00390625 22.9453125 C53.34566895 21.9337207 53.68743164 20.92212891 54.03955078 19.87988281 C54.89327093 17.32002444 55.7194211 14.75428963 56.52734375 12.1796875 C56.85919678 11.13506348 56.85919678 11.13506348 57.19775391 10.06933594 C57.77004848 8.25926685 58.33268043 6.44615053 58.89453125 4.6328125 C60 2 60 2 63 0 C65.32836914 -0.24291992 65.32836914 -0.24291992 68.03515625 -0.23046875 C69.49598633 -0.22756836 69.49598633 -0.22756836 70.98632812 -0.22460938 C72.00146484 -0.21236328 73.01660156 -0.20011719 74.0625 -0.1875 C75.08150391 -0.18685547 76.10050781 -0.18621094 77.15039062 -0.18554688 C84.71919014 -0.14040493 84.71919014 -0.14040493 87 1 C86.49354871 8.24749261 84.22724555 14.37767169 81.625 21.125 C80.71279742 23.5361769 79.8013678 25.94764634 78.890625 28.359375 C78.65431366 28.98157928 78.41800232 29.60378357 78.17453003 30.24484253 C75.75055069 36.63035044 73.41019153 43.04559304 71.07232666 49.4630127 C66.4937072 62.01704623 61.91370714 74.5724599 57 87 C56.70673828 87.74443359 56.41347656 88.48886719 56.11132812 89.25585938 C51.40044997 101.0592846 46.65454055 112.76842631 34.39453125 118.1953125 C28.86830629 120.05241257 23.65279537 120.18286293 17.875 120.1875 C17.06417969 120.19974609 16.25335937 120.21199219 15.41796875 120.22460938 C14.63808594 120.22654297 13.85820313 120.22847656 13.0546875 120.23046875 C12.34812012 120.23457764 11.64155273 120.23868652 10.91357422 120.24291992 C9 120 9 120 6 118 C6.96666667 102.03333333 6.96666667 102.03333333 11 98 C12.58127513 97.86822707 14.16536635 97.76954464 15.75 97.6875 C20.31558105 97.27007545 22.81148424 96.48743911 26 93 C28.69323967 89.40901377 28.55927935 85.29533109 28 81 C26.60758278 76.31078052 24.81051888 71.79005473 23 67.25 C22.49048469 65.94331238 21.98211409 64.63617785 21.47485352 63.32861328 C18.68284627 56.15612055 15.81269422 49.01447652 12.9375 41.875 C9.6878077 33.80252139 6.52761144 25.69743817 3.4375 17.5625 C2.9830249 16.39380371 2.5285498 15.22510742 2.06030273 14.02099609 C1.64723877 12.92223145 1.2341748 11.8234668 0.80859375 10.69140625 C0.24869751 9.22489624 0.24869751 9.22489624 -0.32250977 7.72875977 C-1.06421437 4.74136073 -0.83816117 2.93172822 0 0 Z " fill="#F9F9F8" transform="translate(503,97)"/>
<path d="M0 0 C8.11927283 7.01209926 11.19794671 16.19797972 12.00717163 26.71838379 C12.09415545 30.30072956 12.08812518 33.87003921 12.04296875 37.453125 C12.03872391 38.74571228 12.03447906 40.03829956 12.03010559 41.37005615 C12.01879347 44.76326758 11.989449 48.15607764 11.95599365 51.5491333 C11.92499376 55.02879409 11.91153717 58.5085214 11.89648438 61.98828125 C11.86456194 68.78401633 11.81353683 75.57948876 11.75 82.375 C8.66871778 84.01027484 6.77951049 84.6041819 3.2734375 84.421875 C2.438125 84.37933594 1.6028125 84.33679688 0.7421875 84.29296875 C-0.12148438 84.23753906 -0.98515625 84.18210937 -1.875 84.125 C-2.74640625 84.08503906 -3.6178125 84.04507813 -4.515625 84.00390625 C-10.99203356 83.63296644 -10.99203356 83.63296644 -13.25 81.375 C-13.51501465 79.42420959 -13.51501465 79.42420959 -13.53710938 77.00805664 C-13.55052368 76.10273697 -13.56393799 75.1974173 -13.57775879 74.2646637 C-13.58303589 73.28142624 -13.58831299 72.29818878 -13.59375 71.28515625 C-13.6083728 70.27086044 -13.62299561 69.25656464 -13.63806152 68.21153259 C-13.68467738 64.95356234 -13.71876173 61.69565179 -13.75 58.4375 C-13.79144247 54.17817007 -13.8453648 49.91924759 -13.90625 45.66015625 C-13.9115271 44.69513687 -13.9168042 43.73011749 -13.92224121 42.7358551 C-13.72023734 31.5871008 -13.72023734 31.5871008 -17.63537598 21.62611389 C-21.78742645 18.40883981 -27.27141687 18.82440903 -32.25 19.375 C-37.30782545 21.76597203 -39.28349484 24.2054192 -41.25 29.375 C-41.69333864 33.3380586 -41.69098679 37.28088512 -41.69140625 41.265625 C-41.70461411 42.4065863 -41.71782196 43.54754761 -41.73143005 44.7230835 C-41.77224838 48.35708099 -41.79398773 51.99082534 -41.8125 55.625 C-41.83625623 59.27338099 -41.86428844 62.92152258 -41.90428162 66.56976318 C-41.92871657 68.83778524 -41.94351157 71.10593502 -41.94789124 73.37408447 C-41.95807785 74.39564636 -41.96826447 75.41720825 -41.97875977 76.46972656 C-41.98303482 77.37096252 -41.98730988 78.27219849 -41.99171448 79.20074463 C-42.25 81.375 -42.25 81.375 -44.25 83.375 C-46.46484375 83.61791992 -46.46484375 83.61791992 -49.1875 83.60546875 C-50.65316406 83.60256836 -50.65316406 83.60256836 -52.1484375 83.59960938 C-53.17195313 83.58736328 -54.19546875 83.57511719 -55.25 83.5625 C-56.27351563 83.56185547 -57.29703125 83.56121094 -58.3515625 83.56054688 C-65.96935497 83.51532251 -65.96935497 83.51532251 -68.25 82.375 C-68.27312297 71.44003529 -68.29091485 60.50507634 -68.30181217 49.5700922 C-68.3070411 44.49308982 -68.31413892 39.41610411 -68.32543945 34.33911133 C-68.33626799 29.44379448 -68.34227676 24.54849371 -68.34487724 19.65316582 C-68.34673155 17.78117049 -68.35035228 15.90917609 -68.35573006 14.03718758 C-68.36294004 11.42459301 -68.36399096 8.81206573 -68.36352539 6.19946289 C-68.36712067 5.41759613 -68.37071594 4.63572937 -68.37442017 3.83016968 C-68.36405216 -1.51094784 -68.36405216 -1.51094784 -67.25 -2.625 C-64.15368897 -2.87568786 -61.04276314 -2.81022508 -57.9375 -2.8125 C-57.06931641 -2.82474609 -56.20113281 -2.83699219 -55.30664062 -2.84960938 C-54.46681641 -2.85154297 -53.62699219 -2.85347656 -52.76171875 -2.85546875 C-51.99303467 -2.85957764 -51.22435059 -2.86368652 -50.43237305 -2.86791992 C-47.94900699 -2.59149647 -46.36497313 -1.94193515 -44.25 -0.625 C-43 1.5 -43 1.5 -42.25 3.375 C-40.8578125 2.2303125 -40.8578125 2.2303125 -39.4375 1.0625 C-27.64023113 -7.29290974 -12.41524388 -6.20762194 0 0 Z " fill="#FBFBFB" transform="translate(487.25,99.625)"/>
<path d="M0 0 C8.2220788 6.8130532 10.03734103 15.0386345 11.6875 25.3125 C12.03407792 29.86164589 12.04172515 34.369542 11.98046875 38.9296875 C11.97622391 40.15285675 11.97197906 41.376026 11.96760559 42.63626099 C11.95100942 46.48691207 11.91339381 50.33701105 11.875 54.1875 C11.85992851 56.82160695 11.84624447 59.45572222 11.83398438 62.08984375 C11.80116867 68.49757954 11.75116404 74.90500031 11.6875 81.3125 C9.19754335 82.55747833 7.49755089 82.44184372 4.71484375 82.4453125 C3.24241211 82.44724609 3.24241211 82.44724609 1.74023438 82.44921875 C0.71220703 82.44535156 -0.31582031 82.44148438 -1.375 82.4375 C-2.40689453 82.44136719 -3.43878906 82.44523437 -4.50195312 82.44921875 C-5.48228516 82.44792969 -6.46261719 82.44664062 -7.47265625 82.4453125 C-8.37636963 82.44418457 -9.28008301 82.44305664 -10.21118164 82.44189453 C-12.3125 82.3125 -12.3125 82.3125 -13.3125 81.3125 C-13.42436523 79.89793013 -13.46920419 78.4779678 -13.48608398 77.05908203 C-13.49957382 76.15368683 -13.51306366 75.24829163 -13.52696228 74.31546021 C-13.53740067 73.32706146 -13.54783905 72.33866272 -13.55859375 71.3203125 C-13.59157122 69.23176726 -13.62478212 67.14322569 -13.65820312 65.0546875 C-13.70534512 61.75914418 -13.74968609 58.46361133 -13.78930664 55.16796875 C-13.82942296 51.98941127 -13.88091073 48.81118324 -13.93359375 45.6328125 C-13.9420079 44.66465607 -13.95042206 43.69649963 -13.95909119 42.69900513 C-13.7556682 31.49818585 -13.7556682 31.49818585 -17.76560974 21.57400513 C-21.70090386 18.36473176 -25.10254207 17.87372637 -30.0625 17.99609375 C-33.60907399 18.49483072 -35.65998149 19.97575751 -38.3125 22.3125 C-41.13812293 26.20257284 -41.76317575 29.15229846 -42.00390625 33.921875 C-42.03754776 34.56711121 -42.07118927 35.21234741 -42.10585022 35.87713623 C-42.53359327 45.27593971 -42.34041128 54.69784218 -42.21655273 64.10205078 C-42.18648545 66.55241606 -42.16865529 69.00263526 -42.15234375 71.453125 C-42.13888412 72.19991516 -42.1254245 72.94670532 -42.11155701 73.71612549 C-42.09318124 77.48033613 -42.1681253 79.09593795 -44.3125 82.3125 C-46.63500977 82.66894531 -46.63500977 82.66894531 -49.50390625 82.640625 C-50.53064453 82.63546875 -51.55738281 82.6303125 -52.61523438 82.625 C-53.69095703 82.604375 -54.76667969 82.58375 -55.875 82.5625 C-57.49438477 82.55476563 -57.49438477 82.55476563 -59.14648438 82.546875 C-67.1587004 82.4662996 -67.1587004 82.4662996 -68.3125 81.3125 C-68.41821371 78.73687581 -68.45928123 76.18792825 -68.45776367 73.61157227 C-68.46112228 72.80509247 -68.4644809 71.99861267 -68.46794128 71.16769409 C-68.47748015 68.4880827 -68.47939586 65.80853359 -68.48046875 63.12890625 C-68.48367928 61.27424595 -68.48704319 59.4195859 -68.49055481 57.56492615 C-68.49655343 53.67177747 -68.49839396 49.77865102 -68.49780273 45.88549805 C-68.49770107 40.88711322 -68.51135475 35.88887031 -68.52857494 30.89051914 C-68.53967182 27.05848023 -68.54172266 23.22647587 -68.54119301 19.39442253 C-68.54237657 17.55116219 -68.54681924 15.70790106 -68.55452538 13.86465645 C-68.56427886 11.29060948 -68.56146576 8.71687382 -68.55541992 6.14282227 C-68.56103943 5.37547256 -68.56665894 4.60812286 -68.57244873 3.81752014 C-68.54081554 -1.45918446 -68.54081554 -1.45918446 -66.3125 -3.6875 C-59.30535358 -4.27308306 -52.24592808 -3.77509656 -45.3125 -2.6875 C-44.9825 -1.0375 -44.6525 0.6125 -44.3125 2.3125 C-43.5390625 1.90257813 -42.765625 1.49265625 -41.96875 1.0703125 C-28.18963993 -6.05798949 -13.73069628 -9.45434434 0 0 Z " fill="#F9F9F9" transform="translate(788.3125,100.6875)"/>
<path d="M0 0 C0.84753845 0.00785522 1.6950769 0.01571045 2.56829834 0.02380371 C5.36646553 0.05235563 8.16419123 0.09561377 10.9621582 0.1394043 C12.90459815 0.16303814 14.84704749 0.18591102 16.789505 0.20805359 C20.85733989 0.25656547 24.92500376 0.31193084 28.99267578 0.37255859 C34.2184817 0.45023316 39.44434335 0.51453604 44.6703825 0.57421589 C48.67913837 0.62082894 52.68781329 0.67261514 56.6964817 0.72618675 C58.62428077 0.75167412 60.552096 0.77596655 62.47992516 0.79906654 C65.16640393 0.83240032 67.85270421 0.87224273 70.5390625 0.9140625 C71.3426973 0.92296005 72.14633209 0.9318576 72.97431946 0.94102478 C78.46094768 1.03663128 78.46094768 1.03663128 79.57543945 2.15112305 C79.67443469 3.70067864 79.70623469 5.25465977 79.70825195 6.80737305 C79.70954102 7.74709961 79.71083008 8.68682617 79.7121582 9.6550293 C79.70829102 10.64374023 79.70442383 11.63245117 79.70043945 12.65112305 C79.70430664 13.63983398 79.70817383 14.62854492 79.7121582 15.6472168 C79.71086914 16.58694336 79.70958008 17.52666992 79.70825195 18.49487305 C79.70712402 19.36305664 79.70599609 20.23124023 79.70483398 21.12573242 C79.57543945 23.15112305 79.57543945 23.15112305 78.57543945 24.15112305 C76.28555164 24.31000397 73.99100504 24.40250378 71.6965332 24.4675293 C71.00987076 24.48831039 70.32320831 24.50909149 69.61573792 24.53050232 C67.41491011 24.59606448 65.2139597 24.6549132 63.01293945 24.71362305 C61.52399431 24.75680197 60.03506172 24.80041605 58.54614258 24.84448242 C54.88937392 24.95175235 51.23246627 25.05300077 47.57543945 25.15112305 C47.56513199 26.26390121 47.55482452 27.37667938 47.54420471 28.5231781 C47.446647 38.98610223 47.34393012 49.44896453 47.2361002 59.91178799 C47.18082507 65.29143108 47.12739787 70.67107956 47.078125 76.05078125 C47.03054897 81.23791975 46.97820889 86.4249899 46.9224987 91.6120472 C46.9020444 93.59566621 46.88333653 95.57930399 46.86636543 97.56295586 C46.84238923 100.3312652 46.81232581 103.09944406 46.78076172 105.86767578 C46.77500626 106.69629623 46.76925079 107.52491669 46.76332092 108.37864685 C46.68949161 114.03707089 46.68949161 114.03707089 45.57543945 115.15112305 C43.8798522 115.25044458 42.18018198 115.28192311 40.48168945 115.28393555 C39.45172852 115.28522461 38.42176758 115.28651367 37.3605957 115.2878418 C35.73444336 115.28204102 35.73444336 115.28204102 34.07543945 115.27612305 C32.99133789 115.27999023 31.90723633 115.28385742 30.7902832 115.2878418 C29.76032227 115.28655273 28.73036133 115.28526367 27.66918945 115.28393555 C26.7172168 115.28280762 25.76524414 115.28167969 24.78442383 115.28051758 C22.57543945 115.15112305 22.57543945 115.15112305 21.57543945 114.15112305 C21.45025122 111.38255438 21.38935741 108.63771179 21.37011719 105.86767578 C21.36021759 104.99946198 21.35031799 104.13124817 21.34011841 103.23672485 C21.30840577 100.35275038 21.28370758 97.46875939 21.2590332 94.5847168 C21.23847209 92.59073954 21.21747586 90.59676672 21.19606018 88.60279846 C21.14075239 83.34371529 21.09138165 78.08459222 21.04321289 72.82543945 C20.99306128 67.46326122 20.9373422 62.10114124 20.88208008 56.73901367 C20.77439205 46.20976461 20.67348508 35.68046632 20.57543945 25.15112305 C10.01543945 24.82112305 -0.54456055 24.49112305 -11.42456055 24.15112305 C-12.62485963 21.75052488 -12.53915797 20.25751655 -12.5222168 17.58081055 C-12.51899414 16.68491211 -12.51577148 15.78901367 -12.51245117 14.8659668 C-12.50407227 13.92881836 -12.49569336 12.99166992 -12.48706055 12.02612305 C-12.48254883 11.08124023 -12.47803711 10.13635742 -12.47338867 9.1628418 C-12.46158411 6.82553918 -12.44511813 4.48836243 -12.42456055 2.15112305 C-8.54494523 -0.45699571 -4.48471278 -0.08417809 0 0 Z " fill="#FDFDFC" transform="translate(293.424560546875,67.848876953125)"/>
<path d="M0 0 C0.75925781 -0.01224609 1.51851562 -0.02449219 2.30078125 -0.03710938 C6.50522625 -0.04815433 8.65171997 0.26335998 12.5 2.1875 C12.5 31.5575 12.5 60.9275 12.5 91.1875 C27.21955552 91.10832503 27.21955552 91.10832503 41.93896484 91.00732422 C43.77962005 91.00148488 45.62027783 90.996388 47.4609375 90.9921875 C48.90303589 90.9768396 48.90303589 90.9768396 50.37426758 90.96118164 C51.28764893 90.96093994 52.20103027 90.96069824 53.14208984 90.96044922 C53.93706879 90.956008 54.73204773 90.95156677 55.55111694 90.94699097 C57.5 91.1875 57.5 91.1875 59.5 93.1875 C60.07050842 96.46712881 60.10622537 99.80195094 60.25 103.125 C60.30542969 104.04474609 60.36085938 104.96449219 60.41796875 105.91210938 C60.48177734 107.23758789 60.48177734 107.23758789 60.546875 108.58984375 C60.60633301 109.80401978 60.60633301 109.80401978 60.66699219 111.04272461 C60.5 113.1875 60.5 113.1875 58.5 116.1875 C55.61547852 116.56845093 55.61547852 116.56845093 51.87890625 116.57568359 C50.85916214 116.58356903 50.85916214 116.58356903 49.81881714 116.59161377 C47.56647928 116.60484248 45.31484533 116.59606618 43.0625 116.5859375 C41.50073104 116.58795743 39.93896299 116.59086818 38.37719727 116.59463501 C35.10195955 116.59906223 31.82696706 116.59261474 28.55175781 116.57861328 C24.3480528 116.56152091 20.14492233 116.57136001 15.9412384 116.58933067 C12.715654 116.60015793 9.49020639 116.5967271 6.26461792 116.5889473 C4.71442599 116.58694234 3.16422174 116.58941489 1.61404419 116.59638596 C-0.55060852 116.60398339 -2.71432361 116.59242179 -4.87890625 116.57568359 C-6.72850952 116.57210342 -6.72850952 116.57210342 -8.61547852 116.56845093 C-9.56737061 116.44273712 -10.5192627 116.31702332 -11.5 116.1875 C-13.5966303 113.04255455 -13.74971188 112.33389264 -13.74723816 108.7535553 C-13.75143265 107.84648331 -13.75562714 106.93941132 -13.75994873 106.00485229 C-13.75432922 105.01204254 -13.74870972 104.01923279 -13.74291992 102.99633789 C-13.74481827 101.94893936 -13.74671661 100.90154083 -13.74867249 99.82240295 C-13.75238456 96.3515785 -13.74166896 92.88096219 -13.73046875 89.41015625 C-13.72927697 87.00264002 -13.72882378 84.59512332 -13.7290802 82.18760681 C-13.72751453 77.13781836 -13.71921905 72.08810072 -13.70581055 67.03833008 C-13.68882976 60.56051504 -13.68499593 54.08277796 -13.68575573 47.60494328 C-13.68548396 42.63190464 -13.68000142 37.6588831 -13.67275429 32.68585014 C-13.66956856 30.29719612 -13.66760044 27.90854015 -13.66686058 25.51988411 C-13.66469551 22.18257466 -13.65594723 18.84534828 -13.64526367 15.50805664 C-13.64571686 14.51727112 -13.64617004 13.5264856 -13.64663696 12.50567627 C-13.64237198 11.59578445 -13.63810699 10.68589264 -13.63371277 9.74842834 C-13.63203692 8.95958283 -13.63036108 8.17073732 -13.62863445 7.3579874 C-13.49983384 5.18469633 -13.09876138 3.27609095 -12.5 1.1875 C-8.34027538 0.0252581 -4.29177667 0.00364327 0 0 Z " fill="#F6F6F6" transform="translate(611.5,67.8125)"/>
<path d="M0 0 C0.94673584 0.00410889 1.89347168 0.00821777 2.86889648 0.01245117 C3.89563477 0.01438477 4.92237305 0.01631836 5.98022461 0.01831055 C7.05594727 0.03055664 8.13166992 0.04280273 9.23999023 0.05541992 C10.31958008 0.05606445 11.39916992 0.05670898 12.51147461 0.05737305 C20.53734426 0.10277394 20.53734426 0.10277394 21.67749023 1.24291992 C21.78320395 3.81854412 21.82427146 6.36749167 21.82275391 8.94384766 C21.82611252 9.75032745 21.82947113 10.55680725 21.83293152 11.38772583 C21.84247039 14.06733722 21.84438609 16.74688633 21.84545898 19.42651367 C21.84866951 21.28117397 21.85203342 23.13583402 21.85554504 24.99049377 C21.86154366 28.88364245 21.86338419 32.7767689 21.86279297 36.66992188 C21.8626913 41.6683067 21.87634498 46.66654961 21.89356518 51.66490078 C21.90466206 55.49693969 21.90671289 59.32894405 21.90618324 63.16099739 C21.9073668 65.00425773 21.91180947 66.84751886 21.91951561 68.69076347 C21.92926909 71.26481044 21.92645599 73.8385461 21.92041016 76.41259766 C21.92602966 77.17994736 21.93164917 77.94729706 21.93743896 78.73789978 C21.90580578 84.01460438 21.90580578 84.01460438 19.67749023 86.24291992 C17.46264648 86.50170898 17.46264648 86.50170898 14.73999023 86.50854492 C13.76288086 86.51112305 12.78577148 86.51370117 11.77905273 86.51635742 C10.75553711 86.50862305 9.73202148 86.50088867 8.67749023 86.49291992 C7.65397461 86.5006543 6.63045898 86.50838867 5.57592773 86.51635742 C4.59881836 86.5137793 3.62170898 86.51120117 2.61499023 86.50854492 C1.71651367 86.50628906 0.81803711 86.5040332 -0.10766602 86.50170898 C-2.32250977 86.24291992 -2.32250977 86.24291992 -4.32250977 84.24291992 C-4.52090577 81.63368587 -4.59526953 79.13059465 -4.58129883 76.52026367 C-4.58655579 75.32495529 -4.58655579 75.32495529 -4.59191895 74.10549927 C-4.60074255 71.4637183 -4.59488495 68.82220375 -4.58813477 66.18041992 C-4.58948124 64.34960885 -4.59142162 62.51879813 -4.59393311 60.68798828 C-4.59688522 56.84786582 -4.59258393 53.00783629 -4.58325195 49.16772461 C-4.57185736 44.23773298 -4.57841637 39.3079591 -4.59039688 34.37797546 C-4.59761313 30.59654083 -4.59532864 26.81515809 -4.5901413 23.03372192 C-4.58880415 21.21558608 -4.59045479 19.39744558 -4.5951004 17.57931519 C-4.6001618 15.04127466 -4.592461 12.50359009 -4.58129883 9.96557617 C-4.58534729 9.20914825 -4.58939575 8.45272034 -4.59356689 7.67337036 C-4.53471062 0.47430223 -4.53471062 0.47430223 0 0 Z " fill="#F8F8F8" transform="translate(384.322509765625,96.757080078125)"/>
<path d="M0 0 C0.9583374 0.00523682 1.9166748 0.01047363 2.90405273 0.01586914 C4.45576172 0.02070312 4.45576172 0.02070312 6.03881836 0.02563477 C7.12743164 0.03401367 8.21604492 0.04239258 9.33764648 0.05102539 C10.97636719 0.05779297 10.97636719 0.05779297 12.64819336 0.06469727 C15.35723144 0.07652713 18.06616248 0.09300996 20.77514648 0.11352539 C23.2541293 3.88719886 23.01401309 7.64147525 22.92626953 11.98730469 C22.91448669 13.17083023 22.91448669 13.17083023 22.90246582 14.37826538 C22.87392768 16.98165548 22.83066654 19.5845696 22.78686523 22.18774414 C22.7632297 23.99566191 22.74035695 25.8035898 22.71821594 27.61152649 C22.66971396 31.39689923 22.61435071 35.18208776 22.55371094 38.96728516 C22.47602525 43.82987884 22.41172657 48.69253241 22.35205364 53.55537701 C22.30543914 57.28619819 22.25365363 61.01693244 22.20008278 64.74765968 C22.17459822 66.54148547 22.15030552 68.33532858 22.12720299 70.12918663 C22.09386558 72.62887465 22.05402425 75.12837106 22.01220703 77.62792969 C22.00330948 78.37546005 21.99441193 79.12299042 21.98524475 79.89317322 C21.88963994 84.99903193 21.88963994 84.99903193 20.77514648 86.11352539 C19.06742291 86.20066371 17.35616 86.22052546 15.64624023 86.21118164 C14.09453125 86.20634766 14.09453125 86.20634766 12.51147461 86.20141602 C11.42286133 86.19303711 10.33424805 86.1846582 9.21264648 86.17602539 C7.57392578 86.16925781 7.57392578 86.16925781 5.90209961 86.16235352 C3.19306153 86.15052366 0.48413049 86.13404082 -2.22485352 86.11352539 C-4.70383633 82.33985192 -4.46372012 78.58557553 -4.37597656 74.23974609 C-4.36812134 73.45072906 -4.36026611 72.66171204 -4.35217285 71.8487854 C-4.32363471 69.24539531 -4.28037357 66.64248118 -4.23657227 64.03930664 C-4.21293673 62.23138887 -4.19006398 60.42346098 -4.16792297 58.61552429 C-4.11942099 54.83015156 -4.06405774 51.04496302 -4.00341797 47.25976562 C-3.92573228 42.39717194 -3.8614336 37.53451837 -3.80176067 32.67167377 C-3.75514617 28.94085259 -3.70336066 25.21011834 -3.64978981 21.4793911 C-3.62430525 19.68556531 -3.60001256 17.8917222 -3.57691002 16.09786415 C-3.54357261 13.59817613 -3.50373128 11.09867972 -3.46191406 8.59912109 C-3.45301651 7.85159073 -3.44411896 7.10406036 -3.43495178 6.33387756 C-3.3195245 0.16938208 -3.3195245 0.16938208 0 0 Z " fill="#FAFAF9" transform="translate(685.224853515625,96.886474609375)"/>
<path d="M0 0 C4.28590933 2.79515826 7.22425239 5.92275717 8.875 10.875 C9.33674967 15.67719657 8.90793778 19.15746688 6.26953125 23.296875 C2.80012362 27.22303938 -1.56102694 28.65157528 -6.625 29.375 C-11.78286994 28.63816144 -16.22431396 27.3293873 -19.51953125 23.07421875 C-21.92735991 18.69248108 -22.86987616 14.9029141 -22.125 9.875 C-17.39903235 0.94817223 -9.95909632 -3.58527468 0 0 Z " fill="#F8F8F7" transform="translate(399.125,63.125)"/>
<path d="M0 0 C3.9004481 1.9832787 6.33698375 4.30958252 7.9453125 8.41015625 C9.14214935 13.43232607 9.41318519 17.28331985 7 22 C5.02270026 25.1071853 3.59748877 26.69430807 0.3125 28.375 C-5.52565492 29.47653866 -10.16618928 28.96691838 -15.4375 26.1875 C-18.6458349 23.44867753 -19.81858286 21.58092082 -20.30078125 17.37890625 C-20.34063214 7.80140899 -20.34063214 7.80140899 -17 4 C-11.47457307 -0.97288424 -7.0969598 -1.85956824 0 0 Z " fill="#F9F8F7" transform="translate(700,63)"/>
<path d="M0 0 C2.06394222 3.40841717 2.25117623 6.04456232 2.25396729 9.99682617 C2.25960693 11.22501068 2.26524658 12.45319519 2.27105713 13.71859741 C2.26716866 15.07672178 2.26307233 16.43484557 2.25878906 17.79296875 C2.26149958 19.22547585 2.26506086 20.65798155 2.26940918 22.09048462 C2.27852822 25.97885682 2.27499094 29.86712292 2.26865101 33.75549698 C2.26358851 37.82422421 2.26828316 41.89294234 2.27142334 45.96166992 C2.27506225 52.79445019 2.27026585 59.62718723 2.26074219 66.45996094 C2.24985777 74.36026187 2.2533834 82.26045958 2.264395 90.16075802 C2.27347 96.94301964 2.27475211 103.72525018 2.26951766 110.50751591 C2.26639913 114.55860651 2.26598541 118.60964859 2.27259064 122.66073608 C2.27836656 126.46925058 2.27436271 130.27763194 2.26280212 134.08613205 C2.26015686 135.48415277 2.26091837 136.88218469 2.26532745 138.28020096 C2.27078929 140.18785452 2.2627269 142.09553256 2.25396729 144.00317383 C2.25321323 145.07094559 2.25245918 146.13871735 2.25168228 147.23884583 C2.00004224 149.99953662 1.42347132 151.6492636 0 154 C-1.08271528 150.75185417 -1.12691464 148.39846435 -1.12939453 144.98071289 C-1.13250641 143.72200378 -1.13561829 142.46329468 -1.13882446 141.16644287 C-1.13701455 139.76851373 -1.13500377 138.37058484 -1.1328125 136.97265625 C-1.13382999 135.50189184 -1.13517051 134.03112762 -1.1368103 132.56036377 C-1.13953412 128.56174414 -1.13499858 124.56316277 -1.12857056 120.56454849 C-1.12500803 118.06812677 -1.12338206 115.57171081 -1.12231445 113.07528687 C-1.1023718 75.37936949 -0.60106564 37.69053628 0 0 Z " fill="#F0F1ED" transform="translate(242,53)"/>
<path d="M0 0 C0.33 0 0.66 0 1 0 C1.7503854 4.71362932 2.14313111 9.26591509 2.20532227 14.03686523 C2.21522186 14.70113022 2.22512146 15.3653952 2.23532104 16.04978943 C2.26660744 18.21935611 2.29156164 20.38894459 2.31640625 22.55859375 C2.33700426 24.07317129 2.35800143 25.58774345 2.37937927 27.10231018 C2.43430616 31.0691184 2.48384373 35.03597594 2.53222656 39.00286865 C2.58265754 43.05859718 2.63823034 47.11425497 2.69335938 51.16992188 C2.80058099 59.11322126 2.90210431 67.05658022 3 75 C2.34 75 1.68 75 1 75 C-1.0497827 67.40102851 -1.27660023 60.30716885 -1.23046875 52.4609375 C-1.23001053 51.18070709 -1.22955231 49.90047668 -1.2290802 48.58145142 C-1.22752608 45.88692697 -1.21931825 43.19253741 -1.20581055 40.49804688 C-1.18878813 37.06084278 -1.18499792 33.62378575 -1.18575573 30.18654442 C-1.18541711 26.88215609 -1.17657248 23.57781505 -1.16796875 20.2734375 C-1.16685593 19.04724701 -1.1657431 17.82105652 -1.16459656 16.55770874 C-1.13346513 10.93808072 -1.01428613 5.53329758 0 0 Z " fill="#F5F6F8" transform="translate(37,125)"/>
<path d="M0 0 C2.475 0.495 2.475 0.495 5 1 C4.01 1.66 3.02 2.32 2 3 C1.51983508 6.19335957 1.51983508 6.19335957 1.56762695 10.02001953 C1.5574353 10.74207581 1.54724365 11.46413208 1.53674316 12.20806885 C1.50649811 14.5997278 1.49733006 16.99098706 1.48828125 19.3828125 C1.47144302 21.03906599 1.45329395 22.69530664 1.43388367 24.35153198 C1.38628422 28.71461981 1.35653945 33.07765559 1.33044434 37.44091797 C1.30068875 41.89170621 1.25414137 46.34231484 1.20898438 50.79296875 C1.12283824 59.52855781 1.05554358 68.26416304 1 77 C0.67 77 0.34 77 0 77 C0 51.59 0 26.18 0 0 Z " fill="#F2F7EF" transform="translate(339,90)"/>
<path d="M0 0 C0.99 0.33 1.98 0.66 3 1 C3.04954711 5.05676492 3.085789 9.11341194 3.10986328 13.17041016 C3.11990253 14.54967315 3.13353677 15.92891496 3.15087891 17.30810547 C3.17521754 19.2938514 3.18543255 21.2797545 3.1953125 23.265625 C3.20578613 24.45961914 3.21625977 25.65361328 3.22705078 26.88378906 C3.01034762 29.85798164 2.56186122 31.50318379 1 34 C-0.17942085 30.46173745 -0.11289189 27.65851274 -0.09765625 23.92578125 C-0.0962413 23.2419487 -0.09482635 22.55811615 -0.09336853 21.8535614 C-0.08777876 19.67316278 -0.07522822 17.49286749 -0.0625 15.3125 C-0.05748367 13.83268378 -0.052921 12.35286594 -0.04882812 10.87304688 C-0.03781271 7.24866443 -0.02055512 3.6243423 0 0 Z " fill="#DEDEDE" transform="translate(241,173)"/>
<path d="M0 0 C2.31058985 3.64829977 2.34281599 7.20068395 2.4140625 11.390625 C2.43342865 12.09523865 2.4527948 12.79985229 2.4727478 13.52581787 C2.53232735 15.76709039 2.57884123 18.00841489 2.625 20.25 C2.66319979 21.77345938 2.70225269 23.29689762 2.7421875 24.8203125 C2.83801018 28.54668106 2.92212107 32.27320835 3 36 C2.34 36 1.68 36 1 36 C-0.53297297 32.93405406 -0.12131455 29.72888147 -0.09765625 26.3671875 C-0.0962413 25.61535187 -0.09482635 24.86351624 -0.09336853 24.08889771 C-0.08776465 21.6842249 -0.07521157 19.27964473 -0.0625 16.875 C-0.0574855 15.24609509 -0.0529225 13.61718873 -0.04882812 11.98828125 C-0.03779397 7.99215173 -0.02052679 3.99609158 0 0 Z " fill="#CBCCCA" transform="translate(37,164)"/>
<path d="M0 0 C0.99 0.33 1.98 0.66 3 1 C2.79141357 1.51739746 2.58282715 2.03479492 2.36791992 2.56787109 C-0.66413171 11.13370857 -0.55759308 19.65114201 -0.6875 28.625 C-0.72073736 30.21747488 -0.75523275 31.80992403 -0.79101562 33.40234375 C-0.87517855 37.26808537 -0.94232846 41.13377615 -1 45 C-1.33 45 -1.66 45 -2 45 C-2.04951793 39.39495119 -2.08577555 33.79003035 -2.10986328 28.18481445 C-2.11990737 26.2788674 -2.13354516 24.37293571 -2.15087891 22.46704102 C-2.17519718 19.72408248 -2.18649912 16.98132809 -2.1953125 14.23828125 C-2.20563507 13.38913651 -2.21595764 12.53999176 -2.22659302 11.66511536 C-2.22741351 7.31744045 -2.03452583 3.9599335 0 0 Z " fill="#F4F6EE" transform="translate(39,51)"/>
<path d="M0 0 C0.33 0 0.66 0 1 0 C2.15316726 6.34241995 2.09507063 12.56688704 2 19 C1.34 19 0.68 19 0 19 C0 23.29 0 27.58 0 32 C-0.33 32 -0.66 32 -1 32 C-1.02921779 27.97918212 -1.04687188 23.95839186 -1.0625 19.9375 C-1.07087891 18.80376953 -1.07925781 17.67003906 -1.08789062 16.50195312 C-1.10424847 10.89121133 -1.01812097 5.52350669 0 0 Z " fill="#DCDFDE" transform="translate(37,125)"/>
<path d="M0 0 C3.12492251 -0.05791844 6.24970766 -0.09356746 9.375 -0.125 C10.26445312 -0.14175781 11.15390625 -0.15851563 12.0703125 -0.17578125 C12.92109375 -0.18222656 13.771875 -0.18867188 14.6484375 -0.1953125 C15.82672119 -0.21102295 15.82672119 -0.21102295 17.02880859 -0.22705078 C19 0 19 0 21 2 C18.17554408 2.94148531 16.85828382 3.07311695 13.98828125 2.87890625 C13.23095703 2.83056641 12.47363281 2.78222656 11.69335938 2.73242188 C10.90767578 2.67634766 10.12199219 2.62027344 9.3125 2.5625 C8.51521484 2.51029297 7.71792969 2.45808594 6.89648438 2.40429688 C4.93063478 2.27480978 2.96526335 2.13809959 1 2 C0.67 1.34 0.34 0.68 0 0 Z " fill="#D3D4D5" transform="translate(477,181)"/>
<path d="M0 0 C0.66 0.33 1.32 0.66 2 1 C-1.79037089 6.47035213 -5.75027653 10.89962427 -11 15 C-11 12 -11 12 -9.5390625 10.17578125 C-8.59160156 9.25345703 -8.59160156 9.25345703 -7.625 8.3125 C-6.99851563 7.68988281 -6.37203125 7.06726563 -5.7265625 6.42578125 C-4 5 -4 5 -2 5 C-2 3.68 -2 2.36 -2 1 C-1.34 0.67 -0.68 0.34 0 0 Z " fill="#D2D2D1" transform="translate(144,163)"/>
<path d="M0 0 C0.33 0 0.66 0 1 0 C1.3690205 13.6332574 1.3690205 13.6332574 -1 20 C-1.99 19.67 -2.98 19.34 -4 19 C-3.525625 17.906875 -3.05125 16.81375 -2.5625 15.6875 C-0.61291255 10.56523487 -0.28970046 5.43438112 0 0 Z " fill="#D7D8DA" transform="translate(212,181)"/>
<path d="M0 0 C0.99 0.33 1.98 0.66 3 1 C1.92807816 2.3218362 0.84197305 3.63217927 -0.25 4.9375 C-0.85328125 5.66839844 -1.4565625 6.39929688 -2.078125 7.15234375 C-4.10741134 9.10326334 -5.254407 9.61731779 -8 10 C-7.34 8.68 -6.68 7.36 -6 6 C-5.34 6 -4.68 6 -4 6 C-4 5.34 -4 4.68 -4 4 C-2.70766393 2.62689293 -1.37562854 1.28965176 0 0 Z " fill="#E7E8EE" transform="translate(180,126)"/>
<path d="M0 0 C0.99 0.33 1.98 0.66 3 1 C2.55123384 2.64846769 2.09069512 4.29373455 1.625 5.9375 C1.36976562 6.85402344 1.11453125 7.77054688 0.8515625 8.71484375 C0 11 0 11 -2 12 C-2.17835515 7.45194365 -1.99785435 4.1205746 0 0 Z " fill="#CACACB" transform="translate(39,51)"/>
<path d="M0 0 C2.475 0.495 2.475 0.495 5 1 C4.01 1.66 3.02 2.32 2 3 C1.41312216 6.34613512 1.41312216 6.34613512 1.3125 10.125 C1.24675781 11.40632813 1.18101562 12.68765625 1.11328125 14.0078125 C1.07589844 14.99523437 1.03851563 15.98265625 1 17 C0.67 17 0.34 17 0 17 C0 11.39 0 5.78 0 0 Z " fill="#E7EAE5" transform="translate(339,90)"/>
<path d="M0 0 C0.99 0.33 1.98 0.66 3 1 C3 3.31 3 5.62 3 8 C2.01 8.33 1.02 8.66 0 9 C0 6.03 0 3.06 0 0 Z " fill="#EDEDF3" transform="translate(405,73)"/>
<path d="M0 0 C3.66881155 0.70554068 6.70450534 2.27735506 10 4 C9.67 4.99 9.34 5.98 9 7 C7.68381002 6.21448343 6.37214772 5.4213763 5.0625 4.625 C4.33160156 4.18414062 3.60070313 3.74328125 2.84765625 3.2890625 C1 2 1 2 0 0 Z " fill="#D6D6D7" transform="translate(29,238)"/>
<path d="M0 0 C0.99 0 1.98 0 3 0 C2.67 2.97 2.34 5.94 2 9 C1.34 9 0.68 9 0 9 C-1.125 3.375 -1.125 3.375 0 0 Z " fill="#BDBDBE" transform="translate(81,150)"/>
<path d="M0 0 C0.33 0.99 0.66 1.98 1 3 C-1.97 5.475 -1.97 5.475 -5 8 C-5.33 7.34 -5.66 6.68 -6 6 C-4 4 -2 2 0 0 Z " fill="#E9E9EA" transform="translate(143,86)"/>
<path d="M0 0 C0.66 0.33 1.32 0.66 2 1 C-1.81234923 4.3502463 -5.33285711 6.16974789 -10 8 C-10 7.34 -10 6.68 -10 6 C-7.8828125 4.45703125 -7.8828125 4.45703125 -5.125 2.8125 C-4.22007813 2.26207031 -3.31515625 1.71164063 -2.3828125 1.14453125 C-1.20332031 0.57798828 -1.20332031 0.57798828 0 0 Z " fill="#BCBCBF" transform="translate(119,189)"/>
<path d="M0 0 C1.32 0.66 2.64 1.32 4 2 C4 2.66 4 3.32 4 4 C3.01 4.495 3.01 4.495 2 5 C1.34786708 7.02463255 1.34786708 7.02463255 1 9 C0.34 9 -0.32 9 -1 9 C-0.67 6.03 -0.34 3.06 0 0 Z " fill="#B8B8BA" transform="translate(835,122)"/>
<path d="M0 0 C0.33 1.32 0.66 2.64 1 4 C1.66 4.33 2.32 4.66 3 5 C2.01 6.485 2.01 6.485 1 8 C0.01 8 -0.98 8 -2 8 C-1.34 5.36 -0.68 2.72 0 0 Z " fill="#DDDDDD" transform="translate(123,107)"/>
<path d="M0 0 C1.32 0.33 2.64 0.66 4 1 C4.12375 1.969375 4.2475 2.93875 4.375 3.9375 C4.58125 4.948125 4.7875 5.95875 5 7 C5.66 7.33 6.32 7.66 7 8 C6.01 8 5.02 8 4 8 C2.68 5.36 1.36 2.72 0 0 Z " fill="#E7E8E7" transform="translate(204,47)"/>
<path d="M0 0 C-0.33 0.99 -0.66 1.98 -1 3 C-3.31 3.33 -5.62 3.66 -8 4 C-8 3.34 -8 2.68 -8 2 C-2.25 0 -2.25 0 0 0 Z " fill="#EEEDED" transform="translate(211,242)"/>
</svg>
